# xmcd
#
# Track frame offsets:
#	150
#	16083
#	30584
#	46063
#	61970
#	76747
#	90386
#	108756
#	124911
#	139911
#
# Disc length: 2055 seconds
#
# Revision: 1
# Processed by: cddbd v1.5.2PL0 Copyright (c) Steve Scherf et al.
# Submitted via: audiograbber 1.83.01
#
DISCID=6d08050a
DTITLE=Trinity Lane - Girls Like Fast Cars Too
DYEAR=2009
DGENRE=Country
TTITLE0=I'm Still Growin' Up
TTITLE1=Start Now
TTITLE2=Girls Like Fast Cars Too
TTITLE3=Real Bad Mood
TTITLE4=Cry Me A River
TTITLE5=Crying Hard To Get Over You
TTITLE6=A Day Job And A Dream
TTITLE7=If I Fall In Love Tonight
TTITLE8=Strong For You
TTITLE9=You Were A Mountain
EXTD=
EXTT0=
EXTT1=
EXTT2=
EXTT3=
EXTT4=
EXTT5=
EXTT6=
EXTT7=
EXTT8=
EXTT9=
PLAYORDER=
